<svg xmlns="http://www.w3.org/2000/svg" viewBox="0 0 156 212"><title>file</title><g id="Layer_2" data-name="Layer 2"><g id="text.svg"><path d="M154.828,40.3009,115.6523,1.17A4.0018,4.0018,0,0,0,112.8243,0H4A3.9992,3.9992,0,0,0,0,4V208a3.999,3.999,0,0,0,4,4H152a3.9992,3.9992,0,0,0,4-4V43.1309A4.0021,4.0021,0,0,0,154.828,40.3009ZM142.3435,40H116V13.6565ZM8,204V8H108V44a3.999,3.999,0,0,0,4,4h36V204Z"/><path d="M128,68H28a3.9992,3.9992,0,0,0-4,4V184a3.999,3.999,0,0,0,4,4H128a3.9992,3.9992,0,0,0,4-4V72A3.9993,3.9993,0,0,0,128,68Zm-4,112H32V76h92Z"/><rect x="52" y="88" width="52.0703" height="8"/><rect x="52" y="112" width="52.0703" height="8"/><rect x="52" y="136" width="52.0703" height="8"/><rect x="52" y="160" width="52.0703" height="8"/></g></g></svg>
